<svg id="Group_386" data-name="Group 386" xmlns="http://www.w3.org/2000/svg" xmlns:xlink="http://www.w3.org/1999/xlink" width="25.802" height="19.076" viewBox="0 0 25.802 19.076">
  <defs>
    <clipPath id="clip-path">
      <rect id="Rectangle_225" data-name="Rectangle 225" width="25.802" height="19.076" fill="#fff"/>
    </clipPath>
  </defs>
  <g id="Group_385" data-name="Group 385" clip-path="url(#clip-path)">
    <path id="Path_374" data-name="Path 374" d="M0,14.577c.067-.581.127-1.164.2-1.744A30.032,30.032,0,0,1,2.521,4.012c.07-.152.157-.3.22-.452A3.583,3.583,0,0,1,4.51,1.7,14.172,14.172,0,0,1,9.073.043c.149-.021.3-.027.451-.039a.779.779,0,0,1,.814.468c.356.694.725,1.381,1.078,2.077a.3.3,0,0,0,.326.2c.781-.012,1.561-.01,2.342,0a.272.272,0,0,0,.289-.172c.355-.695.725-1.381,1.078-2.077A.811.811,0,0,1,16.3,0a10.011,10.011,0,0,1,3.589,1c.756.358,1.483.78,2.211,1.2a1.3,1.3,0,0,1,.433.438A19.288,19.288,0,0,1,24.69,8.013a37.934,37.934,0,0,1,1.068,6.345,1.9,1.9,0,0,0,.044.218v.554a3.662,3.662,0,0,1-.458.585A22.867,22.867,0,0,1,23.45,17.25a9.71,9.71,0,0,1-5.426,1.825.935.935,0,0,1-.819-.393c-.589-.764-1.195-1.516-1.786-2.278a.35.35,0,0,0-.357-.157,19.886,19.886,0,0,1-4.3,0,.371.371,0,0,0-.384.156c-.6.778-1.214,1.543-1.817,2.318a.788.788,0,0,1-.736.349,17.046,17.046,0,0,1-1.991-.252A11.309,11.309,0,0,1,.712,15.962,8.992,8.992,0,0,1,0,15.131v-.554M15.9,2.919l.388.067A16.067,16.067,0,0,1,20.463,4.24a.752.752,0,0,1,.406,1.005.741.741,0,0,1-1.014.371A15.652,15.652,0,0,0,14.936,4.33a19.011,19.011,0,0,0-6.207.353A14.283,14.283,0,0,0,5.991,5.6a.756.756,0,1,1-.626-1.372A15.212,15.212,0,0,1,8.486,3.19c.462-.1.927-.184,1.415-.28-.2-.388-.405-.745-.574-1.118-.1-.215-.223-.239-.432-.2a10.821,10.821,0,0,0-2.9,1.041c-1.758.941-1.425.512-2.263,2.4a29.751,29.751,0,0,0-2.17,9.474.4.4,0,0,0,.132.292c.513.419,1.016.856,1.563,1.226a8.748,8.748,0,0,0,3.907,1.505.541.541,0,0,0,.615-.248,8.1,8.1,0,0,1,.54-.7l.493-.63-.334-.078a13.851,13.851,0,0,1-4.592-1.858A.755.755,0,1,1,4.7,12.757a12.537,12.537,0,0,0,4.182,1.67,18.981,18.981,0,0,0,6.735.236,13.336,13.336,0,0,0,5.494-1.908.935.935,0,0,1,.372-.137.743.743,0,0,1,.777.477.754.754,0,0,1-.323.921,10.971,10.971,0,0,1-2.565,1.267c-.767.259-1.549.474-2.35.717l.657.834c.637.809.637.808,1.665.587a10.144,10.144,0,0,0,4.809-2.652.393.393,0,0,0,.09-.286,36.394,36.394,0,0,0-.987-5.952,18.559,18.559,0,0,0-1.881-4.89.808.808,0,0,0-.292-.295c-.694-.373-1.376-.778-2.1-1.08a20.345,20.345,0,0,0-2.13-.671.329.329,0,0,0-.293.075c-.23.4-.433.81-.661,1.249" transform="translate(0 0)" fill="#fff"/>
    <path id="Path_375" data-name="Path 375" d="M210.312,105.364a3.07,3.07,0,0,1-.9,2.178,2.522,2.522,0,0,1-3.717-.1,3.2,3.2,0,0,1-.137-4.058,2.563,2.563,0,0,1,4.31.32,3.225,3.225,0,0,1,.439,1.658m-3.9-.034a1.658,1.658,0,0,0,.413,1.105,1.029,1.029,0,0,0,1.556.015,1.7,1.7,0,0,0-.012-2.249,1.026,1.026,0,0,0-1.539.022,1.658,1.658,0,0,0-.418,1.106" transform="translate(-191.135 -95.479)" fill="#fff"/>
    <path id="Path_376" data-name="Path 376" d="M97.588,105.241a3.03,3.03,0,0,1,1-2.309,2.507,2.507,0,0,1,3.623.212,3.2,3.2,0,0,1-.05,4.248,2.559,2.559,0,0,1-4.25-.77,9.212,9.212,0,0,1-.4-1.362l.072-.02m3.9.016a1.7,1.7,0,0,0-.379-1.081,1.031,1.031,0,0,0-1.555-.091,1.685,1.685,0,0,0,.029,2.338,1.016,1.016,0,0,0,1.394.014,1.6,1.6,0,0,0,.511-1.18" transform="translate(-90.964 -95.387)" fill="#fff"/>
  </g>
</svg>
