<svg id="Group_12" data-name="Group 12" xmlns="http://www.w3.org/2000/svg" xmlns:xlink="http://www.w3.org/1999/xlink" width="44.205" height="70.907" viewBox="0 0 44.205 70.907">
  <defs>
    <clipPath id="clip-path">
      <rect id="Rectangle_35" data-name="Rectangle 35" width="44.205" height="70.907" fill="#fff"/>
    </clipPath>
  </defs>
  <g id="Group_11" data-name="Group 11" clip-path="url(#clip-path)">
    <path id="Path_18" data-name="Path 18" d="M32.077,0a7.479,7.479,0,0,1,3.175,1.434,6.557,6.557,0,0,1,2.189,5.248q.011,9.48-.007,18.96a1.52,1.52,0,0,0,.492,1.21c1.391,1.349,2.749,2.731,4.119,4.1,2.888,2.891,2.881,6.573-.02,9.478-2.347,2.35-4.707,4.688-7.031,7.06a1.693,1.693,0,0,0-.439,1.069c-.03,4.2-.019,8.4-.019,12.594v.874H28.476v8.879h-18q-.025-3.838-.049-7.677c0-.365,0-.731,0-1.18H4.047V60.458c0-2.815-.011-5.629.01-8.444a1.573,1.573,0,0,0-.513-1.273c-1.053-1-2.083-2.028-3.077-3.088a1.633,1.633,0,0,1-.42-1.01C.022,39.861.111,33.077,0,26.3a6.305,6.305,0,0,1,9.083-5.837.913.913,0,0,0,.192.054c3.018-3.072,5.286-3.56,8.686-1.847a6.481,6.481,0,0,1,6.977-2.045c.012-.282.032-.524.032-.766,0-3.022.047-6.046-.01-9.067-.075-3.974,2.371-6.295,5.2-6.714.04-.006.075-.049.113-.075ZM4.27,38.348a1.189,1.189,0,0,0-.076.278c-.005,2.192-.017,4.384.009,6.575a1.171,1.171,0,0,0,.361.694c1.062,1.091,2.165,2.143,3.209,3.25a1.656,1.656,0,0,1,.413,1.015c.038,2.076.019,4.152.019,6.229v1.443H30.376c0-.3,0-.552,0-.8,0-3.368.009-6.737-.01-10.105a1.517,1.517,0,0,1,.488-1.212c1.471-1.43,2.91-2.893,4.335-4.318-3.024-2.3-5.368-5.27-8.162-7.761a6.417,6.417,0,0,1-7.531.57,6.438,6.438,0,0,1-7.98,1.6A6.466,6.466,0,0,1,4.27,38.348M33.287,22.98v-.763q0-5.881,0-11.761c0-1.384.02-2.768-.008-4.151a2.077,2.077,0,1,0-4.146.069q-.012,8.094,0,16.189c0,.158.025.316.038.468a16.119,16.119,0,0,1,2-.262,18.437,18.437,0,0,1,2.122.212M31.34,26.787a2.394,2.394,0,0,0-1.97,1.384,2,2,0,0,0,.481,2.344q3.271,3.282,6.557,6.551a2.073,2.073,0,1,0,2.951-2.906q-3.276-3.326-6.613-6.591a6.116,6.116,0,0,0-1.406-.782M24.232,62.078h-9.6v4.64h9.6ZM12.5,27.146v2.832c0,.046,0,.092,0,.138a2.079,2.079,0,1,0,4.147.061q.047-3.073,0-6.147a2.073,2.073,0,1,0-4.143.008c-.019,1.036,0,2.072,0,3.108M4.186,29.152v2.97c0,.046,0,.092,0,.138a2.079,2.079,0,1,0,4.149,0q.036-3.073,0-6.147a2.073,2.073,0,1,0-4.143,0c-.02,1.013,0,2.026-.006,3.039m16.63-3.4v2.9c0,.046,0,.092,0,.138a2.073,2.073,0,1,0,4.14.071c.041-2.095.045-4.192,0-6.287a2.067,2.067,0,1,0-4.133.066c-.023,1.036,0,2.073-.006,3.109" transform="translate(0)" fill="#fff"/>
    <path id="Path_19" data-name="Path 19" d="M105.2,220.3h-1.909v-4.113h5.983V228.7H105.2Z" transform="translate(-84.215 -176.265)" fill="#2c81d6"/>
    <rect id="Rectangle_34" data-name="Rectangle 34" width="4.04" height="4.087" transform="translate(12.073 45.091)" fill="#2c81d6"/>
  </g>
</svg>
