<svg id="Group_287" data-name="Group 287" xmlns="http://www.w3.org/2000/svg" xmlns:xlink="http://www.w3.org/1999/xlink" width="21.075" height="97.475" viewBox="0 0 21.075 97.475">
  <defs>
    <clipPath id="clip-path">
      <rect id="Rectangle_151" data-name="Rectangle 151" width="21.075" height="97.475" fill="#4f26f8"/>
    </clipPath>
  </defs>
  <g id="Group_282" data-name="Group 282" clip-path="url(#clip-path)">
    <path id="Path_95" data-name="Path 95" d="M10.538,21.075A10.538,10.538,0,1,1,21.075,10.538,10.549,10.549,0,0,1,10.538,21.075m0-17.736a7.2,7.2,0,1,0,7.2,7.2,7.206,7.206,0,0,0-7.2-7.2" fill="#4f26f8"/>
    <path id="Path_96" data-name="Path 96" d="M10.538,249.842A10.538,10.538,0,1,1,21.075,239.3a10.549,10.549,0,0,1-10.538,10.538m0-17.736a7.2,7.2,0,1,0,7.2,7.2,7.206,7.206,0,0,0-7.2-7.2" transform="translate(0 -152.367)" fill="#4f26f8"/>
    <rect id="Rectangle_150" data-name="Rectangle 150" width="3.34" height="58.664" transform="translate(8.868 19.406)" fill="#4f26f8"/>
  </g>
</svg>
