<svg id="Group_384" data-name="Group 384" xmlns="http://www.w3.org/2000/svg" xmlns:xlink="http://www.w3.org/1999/xlink" width="21.968" height="22" viewBox="0 0 21.968 22">
  <defs>
    <clipPath id="clip-path">
      <rect id="Rectangle_224" data-name="Rectangle 224" width="21.968" height="22" fill="#fff"/>
    </clipPath>
  </defs>
  <g id="Group_383" data-name="Group 383" clip-path="url(#clip-path)">
    <path id="Path_371" data-name="Path 371" d="M14.309,22H7.687c-.135-.012-.269-.031-.4-.034a12.444,12.444,0,0,1-2.6-.265A5.634,5.634,0,0,1,.7,18.523a7.9,7.9,0,0,1-.661-3.346C.014,12.806-.008,10.435,0,8.064a14.323,14.323,0,0,1,.288-3.4A5.622,5.622,0,0,1,3.778.571,8.473,8.473,0,0,1,6.915.037C9.15.013,11.386-.006,13.621,0A16.67,16.67,0,0,1,17.13.251a5.634,5.634,0,0,1,4.38,3.764A9.057,9.057,0,0,1,21.96,7.1c.008,2.536.015,5.073-.005,7.609a14.812,14.812,0,0,1-.174,2.159,5.717,5.717,0,0,1-2.035,3.649,6.563,6.563,0,0,1-3.874,1.394c-.521.035-1.042.058-1.563.087M11,20.055q0-.017,0-.034c.58,0,1.161.017,1.741,0,1.252-.045,2.513-.029,3.752-.186a3.588,3.588,0,0,0,3.248-2.879,9.6,9.6,0,0,0,.234-2.085q.06-3.062.038-6.125a29.169,29.169,0,0,0-.168-3.194A3.645,3.645,0,0,0,16.78,2.232a12.977,12.977,0,0,0-2.326-.21q-3.095-.045-6.191-.01A21.648,21.648,0,0,0,5.395,2.2a3.612,3.612,0,0,0-3.162,3,12.283,12.283,0,0,0-.212,2.2q-.057,2.664-.032,5.33c.013,1.23.045,2.465.165,3.689A3.639,3.639,0,0,0,4.007,19.34a4.757,4.757,0,0,0,2.242.592c1.582.056,3.165.083,4.748.122" transform="translate(0 0)" fill="#fff"/>
    <path id="Path_372" data-name="Path 372" d="M123.737,129.514a5.655,5.655,0,1,1,5.66,5.656,5.658,5.658,0,0,1-5.66-5.656m5.656,3.664a3.663,3.663,0,1,0-3.664-3.658,3.653,3.653,0,0,0,3.664,3.658" transform="translate(-118.398 -118.519)" fill="#fff"/>
    <path id="Path_373" data-name="Path 373" d="M361.868,88.159a1.317,1.317,0,0,1-.061,2.633,1.317,1.317,0,1,1,.061-2.633" transform="translate(-344.963 -84.355)" fill="#fff"/>
  </g>
</svg>
