<svg xmlns="http://www.w3.org/2000/svg" xmlns:xlink="http://www.w3.org/1999/xlink" width="181" height="26" viewBox="0 0 181 26">
  <defs>
    <clipPath id="clip-path">
      <rect id="Rectangle_2" data-name="Rectangle 2" width="181" height="26" fill="#fff"/>
    </clipPath>
  </defs>
  <g id="iconymo_logo" data-name="iconymo logo" clip-path="url(#clip-path)">
    <path id="Path_1" data-name="Path 1" d="M141.2,25.372q2.574-8.363,5.144-16.716l-.067-.045c-.275.32-.555.635-.824.96q-2.862,3.448-5.723,6.9-1.383,1.655-2.818,3.268a1.023,1.023,0,0,1-.681.235c-1.245.028-1.213.01-1.438-1.207-.433-2.348-.908-4.689-1.363-7.034-.222-1.141-.438-2.283-.733-3.439-.213.675-.43,1.349-.637,2.025q-1.53,4.985-3.054,9.971c-.464,1.518-.932,3.036-1.365,4.563a.691.691,0,0,1-.811.6c-2.045-.034-4.091-.014-6.137-.013H119.9c.21-.7.4-1.339.59-1.971q1-3.277,2-6.553,1.292-4.227,2.586-8.455c.784-2.558,1.572-5.117,2.347-7.678a.4.4,0,0,1,.457-.321c2.458.01,4.916-.016,7.374.02a3.718,3.718,0,0,1,3.721,3.006c.276,1.607.625,3.2.945,4.8.022.115.055.229.107.436.661-.821,1.267-1.586,1.886-2.341,1.047-1.276,2.073-2.572,3.162-3.812A5.862,5.862,0,0,1,149.525.481c2.183-.031,4.366-.011,6.55-.01a3.3,3.3,0,0,1,.36.044c-.312,1.026-.615,2.02-.918,3.015q-1.478,4.859-2.955,9.719-1.8,5.922-3.621,11.842a.544.544,0,0,1-.371.332c-2.4.02-4.793.015-7.191.012a.805.805,0,0,1-.177-.059Z" fill="#fff"/>
    <path id="Path_2" data-name="Path 2" d="M61.662,25.439C62.2,23.678,62.7,22,63.211,20.326q1.88-6.157,3.767-12.312C67.717,5.6,68.461,3.187,69.193.77a.365.365,0,0,1,.419-.3c2.534.01,5.07-.045,7.6.035A3.633,3.633,0,0,1,80.74,3.492c.655,3.568,1.371,7.125,2.065,10.687.034.176.092.346.17.635.315-1.022.594-1.94.88-2.855q1.411-4.522,2.825-9.044c.221-.706.419-1.42.656-2.121.045-.132.224-.314.343-.314C90,.463,92.317.468,94.717.468c-.077.28-.138.517-.209.752q-1.9,6.247-3.8,12.494Q89,19.333,87.3,24.955a.565.565,0,0,1-.653.492q-4.03-.03-8.062,0c-.417,0-.554-.116-.638-.532-.743-3.691-1.521-7.374-2.283-11.061-.367-1.776-.721-3.553-1.081-5.331-.014-.069-.035-.136-.088-.334-.258.839-.479,1.552-.7,2.266Q71.7,17.3,69.592,24.148c-.129.416-.155.982-.443,1.2s-.844.089-1.281.09c-1.908.005-3.816,0-5.726,0h-.48Z" fill="#fff"/>
    <path id="Path_3" data-name="Path 3" d="M46.646,25.811a20.78,20.78,0,0,1-5.935-.642,6.871,6.871,0,0,1-2.634-1.312,4.506,4.506,0,0,1-1.612-3.967A35.661,35.661,0,0,1,37.2,15.2a66.068,66.068,0,0,1,3.192-9.727,7.283,7.283,0,0,1,4.45-4.1C48.193.076,51.692.049,55.216.186a14.541,14.541,0,0,1,4.885.835,5.553,5.553,0,0,1,3.248,2.823,3.907,3.907,0,0,1,.322,2.3,50.414,50.414,0,0,1-1.946,8.466c-.755,2.167-1.483,4.358-2.445,6.438a7.509,7.509,0,0,1-5.494,4.114,32.938,32.938,0,0,1-7.137.651Zm.494-4.976c1.025-.127,1.8-.19,2.565-.326A3.084,3.084,0,0,0,52.238,18.4,67.735,67.735,0,0,0,55.694,7.522a1.629,1.629,0,0,0-1.375-2.142,8.767,8.767,0,0,0-4.081-.1,3.124,3.124,0,0,0-2.667,2c-.385,1.13-.807,2.248-1.2,3.377a55.741,55.741,0,0,0-2.158,7.676,1.81,1.81,0,0,0,1.078,2.123,10.255,10.255,0,0,0,1.846.38Z" fill="#fff"/>
    <path id="Path_4" data-name="Path 4" d="M171.132,0c1.719.221,3.46.345,5.152.691a5.924,5.924,0,0,1,3.95,2.492,3.766,3.766,0,0,1,.7,2.876c-.509,2.5-.929,5.033-1.63,7.483a57.134,57.134,0,0,1-2.6,7.2c-1.206,2.745-3.575,4.1-6.484,4.6a39.481,39.481,0,0,1-7.708.45,17.384,17.384,0,0,1-5.167-.845,5.031,5.031,0,0,1-3.541-5.439,36.574,36.574,0,0,1,1.817-8.116c.634-1.937,1.384-3.838,2.069-5.759a7.1,7.1,0,0,1,4.47-4.246A22.82,22.82,0,0,1,171.116.129c.005-.042.011-.086.016-.129Zm-6.378,20.809c.793-.108,1.7-.174,2.569-.365a2.571,2.571,0,0,0,2.173-1.89,14.989,14.989,0,0,1,.575-1.612,52.633,52.633,0,0,0,2.9-9.624,1.319,1.319,0,0,0-.82-1.707,7.633,7.633,0,0,0-5.491-.051,2.762,2.762,0,0,0-1.807,1.9c-.3.95-.679,1.876-1,2.82a64.338,64.338,0,0,0-2.234,7.745,2,2,0,0,0,1.674,2.655,11.958,11.958,0,0,0,1.466.127Z" fill="#fff"/>
    <path id="Path_5" data-name="Path 5" d="M39.444.391c-.184.632-.343,1.211-.52,1.783-.382,1.242-.787,2.478-1.151,3.727a.524.524,0,0,1-.6.446c-3.283-.012-6.565-.007-9.847-.007-.26,0-.52,0-.778,0A1.9,1.9,0,0,0,24.822,7.36a25.844,25.844,0,0,0-2.872,7.226c-.257,1.146-.375,2.323-.531,3.491a1.222,1.222,0,0,0,1.14,1.29,34.381,34.381,0,0,0,7.03.329c1.26-.073,2.512-.279,3.769-.423.119-.014.237-.021.435-.04-.136.489-.255.931-.382,1.371-.424,1.451-.855,2.9-1.271,4.352a.583.583,0,0,1-.549.49,55.6,55.6,0,0,1-11.735.419,20.2,20.2,0,0,1-2.939-.4,4.314,4.314,0,0,1-2.9-2.448,9,9,0,0,1-.642-6.317c.474-2.106.936-4.224,1.587-6.279a17.767,17.767,0,0,1,3.994-7.509A7.807,7.807,0,0,1,24.7.347c4.748.04,9.5.011,14.245.012.146,0,.293.017.5.03Z" fill="#fff"/>
    <path id="Path_6" data-name="Path 6" d="M97.274.36h.6c2.062,0,4.123.012,6.184-.012.424,0,.571.159.692.527.979,3,1.978,6,2.972,9a1.987,1.987,0,0,0,.146.23c.18-.22.327-.426.5-.607,1.975-2.057,3.946-4.117,5.934-6.162.918-.945,1.866-1.861,2.81-2.782A.633.633,0,0,1,117.5.37c2.52-.011,5.039-.009,7.559-.006A1.382,1.382,0,0,1,125.3.42c-.135.144-.225.251-.328.349q-6.88,6.509-13.772,13.007a5.407,5.407,0,0,0-1.313,2.572c-.878,2.827-1.761,5.654-2.614,8.489a.7.7,0,0,1-.82.594c-2.123-.031-4.245-.013-6.368-.013H99.6c.091-.335.158-.618.245-.895q1.074-3.44,2.154-6.879c.289-.924.592-1.842.846-2.776a1.365,1.365,0,0,0-.041-.81q-2.127-5.332-4.291-10.651c-.334-.826-.689-1.646-1.029-2.47-.068-.164-.119-.332-.2-.576Z" fill="#fff"/>
    <path id="Path_7" data-name="Path 7" d="M0,25.5c.226-.734.446-1.454.668-2.173q.709-2.3,1.418-4.609c.566-1.842,1.128-3.687,1.7-5.528Q5.315,8.281,6.852,3.378q.418-1.342.8-2.693c.069-.241.14-.4.444-.4,2.366.01,4.733,0,7.1.007a1.82,1.82,0,0,1,.287.049c-2.559,8.4-5.109,16.761-7.667,25.155Z" fill="#fff"/>
  </g>
</svg>
