<svg id="Group_10" data-name="Group 10" xmlns="http://www.w3.org/2000/svg" xmlns:xlink="http://www.w3.org/1999/xlink" width="58.029" height="66.605" viewBox="0 0 58.029 66.605">
  <defs>
    <clipPath id="clip-path">
      <rect id="Rectangle_33" data-name="Rectangle 33" width="58.029" height="66.605" fill="#fff"/>
    </clipPath>
  </defs>
  <g id="Group_9" data-name="Group 9" clip-path="url(#clip-path)">
    <path id="Path_16" data-name="Path 16" d="M33.57,139.194c-1.827-.978-2.435-2.192-2.146-4.455.225-1.761.553-3.509.763-5.271.138-1.158.177-2.33.2-3.5a1.454,1.454,0,0,0-1.075-1.518,16.817,16.817,0,0,0-5.97-.688c-.25.005-.527.331-.733.561a58.3,58.3,0,0,1-10.55,9.419A35.357,35.357,0,0,1,2.87,138.953a2.1,2.1,0,0,1-2.2-3.487c5.948-7.207,11.8-14.491,17.168-22.143,2.136-3.045,4.04-6.254,6.006-9.416a19.512,19.512,0,0,0,1.07-2.374,13.215,13.215,0,0,0-2.742.029c-2.91.659-5.788,1.454-8.687,2.163-1.069.261-2.159.438-3.243.63a2.926,2.926,0,0,1-.778-.014,2.313,2.313,0,0,1-2.082-3.254,9.048,9.048,0,0,1,1.978-2.85,31.5,31.5,0,0,1,16.119-8.428,12.917,12.917,0,0,1,6.421.406c3.354,1.092,6.739,2.089,10.1,3.169a3.387,3.387,0,0,0,3.344-.586,31.147,31.147,0,0,1,6.822-4.249,8.933,8.933,0,0,1,2.8-.72,2.713,2.713,0,0,1,2.966,3.524,10.953,10.953,0,0,1-1.01,2.725,38.553,38.553,0,0,1-7.565,9.779c-.079.074-.165.141-.243.216a6.369,6.369,0,0,1-5.855,1.76c-1.94-.339-3.877-.7-5.816-1.046-.17-.031-.339-.066-.624-.121a20.311,20.311,0,0,1-3.692,8.367c.8.286,1.527.531,2.245.808a21.173,21.173,0,0,1,6.5,3.612,5.837,5.837,0,0,1,2.243,5.641,26.587,26.587,0,0,1-.944,3.968,31.363,31.363,0,0,1-5.3,9.7,6.837,6.837,0,0,1-3.129,2.433Zm-24.554-7.3.037.078c.3-.171.593-.338.885-.514a44.461,44.461,0,0,0,7.427-5.673,87.023,87.023,0,0,0,12.606-15.42,19.525,19.525,0,0,0,3.064-8.193c.255-1.731,1.246-2.39,2.976-2.017,2.454.53,4.92,1,7.377,1.519a3.4,3.4,0,0,0,3.394-1.057,42.838,42.838,0,0,0,5.779-7.258,3.541,3.541,0,0,0,.19-.406l-.135-.133c-1.636,1.132-3.3,2.228-4.9,3.4a7.251,7.251,0,0,1-6.878,1.15c-3.444-1.1-6.9-2.145-10.353-3.224a9.357,9.357,0,0,0-4.052-.278,21.636,21.636,0,0,0-7.45,2.571c-1.306.7-2.555,1.507-3.83,2.266l.083.167c.724-.2,1.447-.4,2.173-.6a20.5,20.5,0,0,1,7.37-.962c2.863.289,5.289,1.827,3.93,5.739a26.409,26.409,0,0,1-2,4.284,131.511,131.511,0,0,1-9.864,14.422c-2.574,3.4-5.212,6.757-7.822,10.133m27.027.121a26.811,26.811,0,0,0,3.875-8.544A2.88,2.88,0,0,0,38.6,120.13a26.653,26.653,0,0,0-7.624-3.362.488.488,0,0,0-.427.122c-.68.889-1.336,1.8-2.041,2.755.2.028.323.036.442.064a38.5,38.5,0,0,1,4.2,1.041,4.833,4.833,0,0,1,3.274,4.239,22.791,22.791,0,0,1,.05,3.751c-.058,1.095-.279,2.181-.427,3.271" transform="translate(0 -72.589)" fill="#fff"/>
    <path id="Path_17" data-name="Path 17" d="M167.2,0a21.038,21.038,0,0,1,2.354.7,8.586,8.586,0,1,1-4.923-.558c.165-.03.325-.091.487-.137Zm3.418,8.612a4.435,4.435,0,1,0-4.425,4.407,4.422,4.422,0,0,0,4.425-4.407" transform="translate(-130.247)" fill="#2c81d6"/>
  </g>
</svg>
