<svg id="Group_4" data-name="Group 4" xmlns="http://www.w3.org/2000/svg" xmlns:xlink="http://www.w3.org/1999/xlink" width="59.665" height="70.907" viewBox="0 0 59.665 70.907">
  <defs>
    <clipPath id="clip-path">
      <rect id="Rectangle_30" data-name="Rectangle 30" width="59.665" height="70.907" fill="#fff"/>
    </clipPath>
  </defs>
  <g id="Group_3" data-name="Group 3" clip-path="url(#clip-path)">
    <path id="Path_8" data-name="Path 8" d="M44.1,70.907H42.849a3.511,3.511,0,0,1-1.663-1.47c-1.883-3.331-3.8-6.643-5.694-9.968a3.308,3.308,0,0,1-.391-.95,2.408,2.408,0,0,1,1.46-2.756,2.381,2.381,0,0,1,3.012.984c1.007,1.681,1.96,3.393,2.939,5.091.116.2.245.4.421.678.651-1.891,1.248-3.658,1.868-5.417a2.457,2.457,0,0,1,3.191-1.644c.51.142,1.014.309,1.522.457.759.221,1.52.436,2.448.7L46.3,46.908c-10.992,7.67-21.96,7.712-33.031.155L7.7,56.626c1.424-.417,2.633-.784,3.85-1.119a3.4,3.4,0,0,1,1.151-.162A2.389,2.389,0,0,1,14.866,57.1c.612,1.77,1.222,3.542,1.868,5.416.184-.3.307-.49.42-.686.9-1.558,1.787-3.121,2.689-4.676A2.337,2.337,0,0,1,22.267,55.9a2.43,2.43,0,0,1,1.8,3.75c-1.757,3.111-3.562,6.195-5.313,9.31a4.012,4.012,0,0,1-1.94,1.948H15.567a3.4,3.4,0,0,1-2.005-2.443c-.48-1.586-1.063-3.141-1.605-4.708-.336-.973-.677-1.943-1.023-2.936-.307.088-.55.154-.792.225-2.3.678-4.59,1.369-6.892,2.032A2.451,2.451,0,0,1,.131,61.513a2.645,2.645,0,0,1,.356-2.306c2.97-5.073,5.922-10.156,8.9-15.224a.752.752,0,0,0-.069-1.022c-5-6.261-7.044-13.393-5.5-21.253C5.968,10.784,12.644,3.838,23.348.81A44.732,44.732,0,0,1,27.893,0h3.6l1.769.255A25.6,25.6,0,0,1,50.171,9.827,26.093,26.093,0,0,1,50.2,42.8a.712.712,0,0,0-.055.961c1.295,2.179,2.561,4.376,3.837,6.566q2.629,4.51,5.256,9.02a2.478,2.478,0,0,1-2.907,3.705c-2.517-.736-5.031-1.484-7.589-2.24-.09.24-.172.45-.246.663-.814,2.35-1.668,4.687-2.421,7.057A3.4,3.4,0,0,1,44.1,70.907m7.027-44.565a21.433,21.433,0,1,0-21.432,21.4,21.446,21.446,0,0,0,21.432-21.4" transform="translate(0)" fill="#fff"/>
    <path id="Path_9" data-name="Path 9" d="M80.673,83.638c.279-1.789.512-3.88.957-5.925A2.727,2.727,0,0,0,80.6,74.574c-1.519-1.194-2.871-2.6-4.309-3.9a2.445,2.445,0,0,1-.854-2.722,2.488,2.488,0,0,1,2.244-1.765c2.347-.348,4.687-.746,7.034-1.1a1.025,1.025,0,0,0,.857-.669c.987-2.081,2.02-4.14,3-6.225a2.519,2.519,0,0,1,4.684-.071c1.068,2.067,2.174,4.115,3.248,6.179a.88.88,0,0,0,.776.546c2.449.283,4.893.617,7.34.918a2.383,2.383,0,0,1,2.1,1.652,2.332,2.332,0,0,1-.62,2.6c-1.687,1.673-3.372,3.349-5.085,4.994a1.1,1.1,0,0,0-.361,1.145c.452,2.212.862,4.432,1.312,6.644a2.517,2.517,0,0,1-3.687,2.886c-2.083-1.036-4.184-2.035-6.253-3.1a1.292,1.292,0,0,0-1.386.044c-2.038,1.122-4.1,2.2-6.152,3.3a2.712,2.712,0,0,1-2.709.062,2.264,2.264,0,0,1-1.109-2.357M91.021,64.446c-.605,1.246-1.185,2.393-1.723,3.56a2.722,2.722,0,0,1-2.268,1.681c-1.242.165-2.475.4-3.851.62.934.862,1.726,1.666,2.594,2.375a3.029,3.029,0,0,1,1.093,3.263c-.23,1.085-.345,2.194-.533,3.432,1.143-.611,2.169-1.088,3.12-1.687a3.228,3.228,0,0,1,3.637-.054c.981.566,2.034,1.009,3.158,1.556-.266-1.4-.49-2.667-.753-3.925a2.473,2.473,0,0,1,.723-2.4c.719-.717,1.448-1.424,2.17-2.137.2-.2.392-.4.674-.7-1.391-.178-2.618-.365-3.852-.485a2.717,2.717,0,0,1-2.33-1.592c-.58-1.15-1.2-2.278-1.857-3.51" transform="translate(-61.402 -46.123)" fill="#2c81d6"/>
  </g>
</svg>
