<svg xmlns="http://www.w3.org/2000/svg" width="1649.5" height="515" viewBox="0 0 1649.5 515">
  <g id="Group_27" data-name="Group 27" transform="translate(-217 -2291.677)" opacity="0.64">
    <g id="Group_24" data-name="Group 24" transform="translate(-691 -211.323)">
      <rect id="Rectangle_45" data-name="Rectangle 45" width="148" height="181" rx="37" transform="translate(908 2837)" fill="#121212" opacity="0.47"/>
      <path id="Rectangle_46" data-name="Rectangle 46" d="M0,0H69a37,37,0,0,1,37,37V144a37,37,0,0,1-37,37H37A37,37,0,0,1,0,144V0A0,0,0,0,1,0,0Z" transform="translate(1092 2837)" fill="#121212" opacity="0.47"/>
      <path id="Rectangle_39" data-name="Rectangle 39" d="M100,0H268a0,0,0,0,1,0,0V22A100,100,0,0,1,168,122H0a0,0,0,0,1,0,0V100A100,100,0,0,1,100,0Z" transform="translate(908 2512)" fill="#212121" opacity="0.47"/>
      <path id="Rectangle_42" data-name="Rectangle 42" d="M52.14,0h115A100.86,100.86,0,0,1,268,100.86v0A52.14,52.14,0,0,1,215.86,153H52.14A52.14,52.14,0,0,1,0,100.86V52.14A52.14,52.14,0,0,1,52.14,0Z" transform="translate(908 2659)" fill="#212121" opacity="0.47"/>
      <path id="Rectangle_43" data-name="Rectangle 43" d="M22.832,0h201A44.168,44.168,0,0,1,268,44.168v0A22.832,22.832,0,0,1,245.168,67H22.832A22.832,22.832,0,0,1,0,44.168V22.832A22.832,22.832,0,0,1,22.832,0Z" transform="translate(1484 2726) rotate(180)" fill="#212121" opacity="0.47"/>
      <rect id="Rectangle_44" data-name="Rectangle 44" width="268" height="67" rx="33.5" transform="translate(1484 2812) rotate(180)" fill="#212121" opacity="0.47"/>
      <rect id="Rectangle_40" data-name="Rectangle 40" width="74" height="122" rx="37" transform="translate(1223 2512)" fill="#121212" opacity="0.47"/>
      <rect id="Rectangle_41" data-name="Rectangle 41" width="148" height="122" rx="37" transform="translate(1344 2512)" fill="#121212" opacity="0.47"/>
      <rect id="Rectangle_47" data-name="Rectangle 47" width="250" height="181" rx="37" transform="translate(1234 2837)" fill="#121212" opacity="0.47"/>
    </g>
    <g id="Group_25" data-name="Group 25" transform="translate(3842 1383.677) rotate(90)">
      <rect id="Rectangle_45-2" data-name="Rectangle 45" width="131" height="181" rx="37" transform="translate(908 2837)" fill="#121212" opacity="0.47"/>
      <path id="Rectangle_46-2" data-name="Rectangle 46" d="M0,0H57A37,37,0,0,1,94,37V144a37,37,0,0,1-37,37H37A37,37,0,0,1,0,144V0A0,0,0,0,1,0,0Z" transform="translate(1070 2837)" fill="#121212" opacity="0.47"/>
      <path id="Rectangle_39-2" data-name="Rectangle 39" d="M100,0H236a0,0,0,0,1,0,0V22A100,100,0,0,1,136,122H0a0,0,0,0,1,0,0V100A100,100,0,0,1,100,0Z" transform="translate(908 2512)" fill="#212121" opacity="0.47"/>
      <path id="Rectangle_42-2" data-name="Rectangle 42" d="M52.14,0h83A100.86,100.86,0,0,1,236,100.86v0A52.14,52.14,0,0,1,183.86,153H52.14A52.14,52.14,0,0,1,0,100.86V52.14A52.14,52.14,0,0,1,52.14,0Z" transform="translate(908 2659)" fill="#212121" opacity="0.47"/>
      <path id="Rectangle_43-2" data-name="Rectangle 43" d="M22.832,0h169A44.168,44.168,0,0,1,236,44.168v0A22.832,22.832,0,0,1,213.168,67H22.832A22.832,22.832,0,0,1,0,44.168V22.832A22.832,22.832,0,0,1,22.832,0Z" transform="translate(1416 2726) rotate(180)" fill="#212121" opacity="0.47"/>
      <rect id="Rectangle_44-2" data-name="Rectangle 44" width="236" height="67" rx="33.5" transform="translate(1416 2812) rotate(180)" fill="#212121" opacity="0.47"/>
      <rect id="Rectangle_40-2" data-name="Rectangle 40" width="65" height="122" rx="32.5" transform="translate(1186 2512)" fill="#121212" opacity="0.47"/>
      <rect id="Rectangle_41-2" data-name="Rectangle 41" width="131" height="122" rx="37" transform="translate(1292 2512)" fill="#121212" opacity="0.47"/>
      <rect id="Rectangle_47-2" data-name="Rectangle 47" width="221" height="181" rx="37" transform="translate(1195 2837)" fill="#121212" opacity="0.47"/>
    </g>
    <g id="Group_26" data-name="Group 26" transform="translate(2774.5 5314.177) rotate(180)">
      <rect id="Rectangle_45-3" data-name="Rectangle 45" width="131" height="181" rx="37" transform="translate(908 2837)" fill="#121212" opacity="0.47"/>
      <path id="Rectangle_46-3" data-name="Rectangle 46" d="M0,0H57A37,37,0,0,1,94,37V144a37,37,0,0,1-37,37H37A37,37,0,0,1,0,144V0A0,0,0,0,1,0,0Z" transform="translate(1070 2837)" fill="#121212" opacity="0.47"/>
      <path id="Rectangle_39-3" data-name="Rectangle 39" d="M100,0H236a0,0,0,0,1,0,0V22A100,100,0,0,1,136,122H0a0,0,0,0,1,0,0V100A100,100,0,0,1,100,0Z" transform="translate(908 2512)" fill="#212121" opacity="0.47"/>
      <path id="Rectangle_42-3" data-name="Rectangle 42" d="M52.14,0h83A100.86,100.86,0,0,1,236,100.86v0A52.14,52.14,0,0,1,183.86,153H52.14A52.14,52.14,0,0,1,0,100.86V52.14A52.14,52.14,0,0,1,52.14,0Z" transform="translate(908 2659)" fill="#212121" opacity="0.47"/>
      <path id="Rectangle_43-3" data-name="Rectangle 43" d="M22.832,0h169A44.168,44.168,0,0,1,236,44.168v0A22.832,22.832,0,0,1,213.168,67H22.832A22.832,22.832,0,0,1,0,44.168V22.832A22.832,22.832,0,0,1,22.832,0Z" transform="translate(1416 2726) rotate(180)" fill="#212121" opacity="0.47"/>
      <rect id="Rectangle_44-3" data-name="Rectangle 44" width="236" height="67" rx="33.5" transform="translate(1416 2812) rotate(180)" fill="#212121" opacity="0.47"/>
      <rect id="Rectangle_40-3" data-name="Rectangle 40" width="65" height="122" rx="32.5" transform="translate(1186 2512)" fill="#121212" opacity="0.47"/>
      <rect id="Rectangle_41-3" data-name="Rectangle 41" width="131" height="122" rx="37" transform="translate(1292 2512)" fill="#121212" opacity="0.47"/>
      <rect id="Rectangle_47-3" data-name="Rectangle 47" width="221" height="181" rx="37" transform="translate(1195 2837)" fill="#121212" opacity="0.47"/>
    </g>
  </g>
</svg>
