<svg id="twitter" xmlns="http://www.w3.org/2000/svg" xmlns:xlink="http://www.w3.org/1999/xlink" width="25.303" height="22" viewBox="0 0 25.303 22">
  <defs>
    <clipPath id="clip-path">
      <rect id="Rectangle_226" data-name="Rectangle 226" width="25.303" height="22" fill="#fff"/>
    </clipPath>
  </defs>
  <g id="Group_387" data-name="Group 387" clip-path="url(#clip-path)">
    <path id="Path_377" data-name="Path 377" d="M0,7.437c.269-.579.542-.7,1.167-.509.194.058.388.113.59.172-.139-.41-.3-.788-.4-1.182a4.957,4.957,0,0,1,.631-4.024c.457-.7,1.083-.686,1.494.042A11.653,11.653,0,0,0,6.355,5.361a10.621,10.621,0,0,0,5.359,2.277l.335.047c.021-.408.025-.808.065-1.2a6.017,6.017,0,0,1,4.018-5.206,5.23,5.23,0,0,1,3.895.261.42.42,0,0,0,.413,0Q21.874.816,23.318.117a.775.775,0,0,1,.993.128.775.775,0,0,1,.077.92c-.346.691-.687,1.385-1.03,2.078-.036.072-.067.146-.119.26.4-.032.754-.053,1.11-.092a.8.8,0,0,1,.838.346.775.775,0,0,1-.049.883c-.341.544-.685,1.086-1.012,1.638a.634.634,0,0,0-.08.388,13.352,13.352,0,0,1-.913,7.542,14.52,14.52,0,0,1-2.381,3.673,11.788,11.788,0,0,1-7.685,3.937A20.949,20.949,0,0,1,3.06,20.684a7.379,7.379,0,0,1-1.984-1.035C.985,19.58.9,19.5.815,19.424A.762.762,0,0,1,1.34,18.07c.568-.006,1.137.013,1.7-.006a7.431,7.431,0,0,0,3.594-.926c.247-.145.48-.313.733-.48-.58-.2-1.138-.364-1.681-.573A8.869,8.869,0,0,1,2.54,14.1a.8.8,0,0,1-.286-.815.778.778,0,0,1,.647-.57c.223-.05.442-.12.7-.192-.313-.193-.6-.353-.866-.534A6.154,6.154,0,0,1,.227,8.608C.143,8.335.076,8.058,0,7.783V7.437M22.05,2.476l-.044-.035c-.421.205-.852.392-1.26.621a1.035,1.035,0,0,1-1.134-.038,3.638,3.638,0,0,0-2.67-.405,4.42,4.42,0,0,0-3.3,3.793,5.509,5.509,0,0,0,.038,1.818c.111.613-.219,1.065-.777,1.016a19.141,19.141,0,0,1-2.492-.321,12.163,12.163,0,0,1-7.03-4.452c-.182-.229-.356-.464-.56-.73a3.783,3.783,0,0,0,.065,2.014A4.073,4.073,0,0,0,3.795,7.35a.758.758,0,0,1,.187.84.766.766,0,0,1-.688.485c-.2.021-.392.049-.589.056-.273.01-.546,0-.825,0,.023.053.05.12.083.186A4.731,4.731,0,0,0,4.179,11.09c.491.242,1.022.4,1.536.6a.757.757,0,0,1,.158,1.376c-.09.058-.182.113-.276.164-.348.188-.7.375-1.076.577.274.16.516.316.769.449a11.286,11.286,0,0,0,3.655,1.14A.785.785,0,0,1,9.436,16.8a8.136,8.136,0,0,1-5.023,2.65.649.649,0,0,0-.139.061,19.447,19.447,0,0,0,4.718.922,17.96,17.96,0,0,0,4.211-.157,11.2,11.2,0,0,0,4.453-1.652,11,11,0,0,0,2.729-2.692,11.646,11.646,0,0,0,2.016-4.25,12.71,12.71,0,0,0,.113-5.05,1.235,1.235,0,0,1,.19-.94c.137-.2.255-.412.4-.652l-.588.042c-.189.013-.378.037-.566.036a.7.7,0,0,1-.734-.626,1.232,1.232,0,0,1,.121-.564c.222-.491.472-.97.711-1.453" transform="translate(-0.001 0.001)" fill="#fff"/>
  </g>
</svg>
